<svg width="320" height="321" viewBox="0 0 320 321" fill="none" xmlns="http://www.w3.org/2000/svg">
<g clip-path="url(#clip0_1_349)">
<rect y="0.718384" width="320" height="320" rx="8" fill="#EEEEEE"/>
<mask id="mask0_1_349" style="mask-type:luminance" maskUnits="userSpaceOnUse" x="0" y="-3" width="320" height="321">
<path d="M320 -2.28162H0V317.718H320V-2.28162Z" fill="white"/>
</mask>
<g mask="url(#mask0_1_349)">
<path d="M320 -2.28162V317.718H0V-2.28162H320Z" fill="#EFEFEF"/>
<mask id="mask1_1_349" style="mask-type:luminance" maskUnits="userSpaceOnUse" x="78" y="51" width="164" height="214">
<path d="M78.8456 51.0517H241.302V264.385H78.8456V51.0517Z" fill="white"/>
</mask>
<g mask="url(#mask1_1_349)">
<path d="M241.242 59.4727V255.964C241.242 260.612 237.468 264.385 232.821 264.385H87.3267C82.6791 264.385 78.9056 260.612 78.9056 255.964V59.4727C78.9056 54.8252 82.6791 51.0517 87.3267 51.0517H232.821C237.468 51.0517 241.242 54.8252 241.242 59.4727Z" fill="#FDFDFC"/>
<mask id="mask2_1_349" style="mask-type:luminance" maskUnits="userSpaceOnUse" x="90" y="61" width="141" height="47">
<path d="M90.1474 61.9289H230.147V107.543H90.1474V61.9289Z" fill="white"/>
</mask>
<g mask="url(#mask2_1_349)">
<path d="M90.8176 70.5362H91.5614V68.1889H93.2C93.4948 68.1889 93.7123 68.2205 93.8491 68.2906C94.0913 68.4099 94.2176 68.652 94.2351 69.0099L94.2807 69.9222C94.2913 70.1362 94.3018 70.2801 94.3193 70.3538C94.3334 70.4275 94.3509 70.4906 94.379 70.5362H95.2877V70.4134C95.172 70.3643 95.0913 70.252 95.0491 70.0766C95.0211 69.9748 95.0035 69.8205 94.9965 69.6134L94.9684 68.8766C94.9579 68.5608 94.8983 68.3292 94.7895 68.1889C94.6807 68.0485 94.5193 67.9327 94.3053 67.845C94.5509 67.7187 94.7404 67.5503 94.8737 67.3433C95.0105 67.1327 95.0772 66.8661 95.0772 66.5362C95.0772 65.9082 94.8246 65.4766 94.3193 65.245C94.0562 65.1222 93.7158 65.0626 93.3053 65.0626H90.8176V70.5362ZM91.5614 67.5713V65.6976H93.3228C93.5684 65.6976 93.7649 65.7362 93.9123 65.8099C94.186 65.9538 94.3263 66.2169 94.3263 66.6099C94.3263 66.9713 94.2281 67.2205 94.0281 67.3608C93.8316 67.5012 93.5649 67.5713 93.2281 67.5713H91.5614Z" fill="#757267"/>
<path d="M96.1595 70.5363H96.9384V69.7222H96.1595V70.5363Z" fill="#757267"/>
<path d="M98.1271 70.5362H102.155V69.8836H98.8499V68.0275H101.853V67.3959H98.8499V65.7327H102.099V65.0626H98.1271V70.5362Z" fill="#757267"/>
<path d="M102.781 68.7714C102.774 69.3608 102.96 69.831 103.335 70.1749C103.711 70.5222 104.23 70.6977 104.893 70.6977C105.462 70.6977 105.963 70.5679 106.392 70.3047C106.823 70.045 107.037 69.61 107.037 69.0029C107.037 68.5187 106.869 68.1468 106.532 67.8907C106.335 67.7433 106.062 67.6275 105.7 67.5433L104.956 67.3679C104.458 67.2486 104.135 67.1503 103.995 67.0696C103.778 66.9468 103.669 66.7503 103.669 66.4801C103.669 66.238 103.76 66.024 103.942 65.8415C104.128 65.6556 104.427 65.5643 104.848 65.5643C105.367 65.5643 105.735 65.7082 105.953 65.9924C106.069 66.1503 106.146 66.3749 106.181 66.6696H106.876C106.876 66.0591 106.683 65.617 106.29 65.3398C105.9 65.0626 105.427 64.9222 104.869 64.9222C104.262 64.9222 103.792 65.0801 103.462 65.3959C103.128 65.7117 102.963 66.1152 102.963 66.61C102.963 67.0626 103.132 67.4029 103.469 67.6345C103.665 67.7643 103.995 67.8836 104.465 67.9959L105.185 68.1608C105.574 68.2556 105.862 68.3608 106.044 68.4872C106.223 68.6135 106.314 68.824 106.314 69.1222C106.314 69.5222 106.1 69.7959 105.676 69.9503C105.455 70.031 105.213 70.0696 104.942 70.0696C104.346 70.0696 103.928 69.8907 103.69 69.5258C103.567 69.3328 103.497 69.0801 103.479 68.7714H102.781Z" fill="#757267"/>
<path d="M107.474 65.0626V65.7152H109.319V70.5362H110.066V65.7152H111.912V65.0626H107.474Z" fill="#757267"/>
<path d="M111.972 70.5362H112.734L113.323 68.8976H115.491L116.046 70.5362H116.856L114.87 65.0626H114.032L111.972 70.5362ZM113.537 68.2941L114.421 65.8731L115.253 68.2941H113.537Z" fill="#757267"/>
<path d="M116.921 65.0626V65.7152H118.766V70.5362H119.514V65.7152H121.359V65.0626H116.921Z" fill="#757267"/>
<path d="M121.96 70.5362H125.988V69.8836H122.683V68.0275H125.686V67.3959H122.683V65.7327H125.932V65.0626H121.96V70.5362Z" fill="#757267"/>
<path d="M125.02 65.0868V67.2131H125.321V65.4142H125.327L125.931 67.2131H126.271L126.875 65.4142H126.881V67.2131H127.179V65.0868H126.682L126.107 66.8587H126.104L125.517 65.0896L125.02 65.0868ZM123.151 65.0868V65.3429H123.801V67.2131H124.101V65.3429H124.748V65.0868H123.151Z" fill="#747167"/>
<path d="M90.1474 81.9289H230.295" stroke="#DCDBD5" stroke-width="0.350877"/>
<path d="M113.604 93.5079H90.1474" stroke="#EEEEEB" stroke-width="2.13614"/>
<path d="M122.226 99.1219H90.1474" stroke="#EEEEEB" stroke-width="2.13614"/>
<path d="M227.528 93.0693H208.042" stroke="#EEEEEB" stroke-width="2.13614"/>
<path d="M230.448 98.6833H208.042" stroke="#EEEEEB" stroke-width="2.13614"/>
<path d="M224.102 104.297H208.042" stroke="#EEEEEB" stroke-width="2.13614"/>
</g>
<mask id="mask3_1_349" style="mask-type:luminance" maskUnits="userSpaceOnUse" x="90" y="162" width="141" height="89">
<path d="M90.1474 162.702H230.147V250.422H90.1474V162.702Z" fill="white"/>
</mask>
<g mask="url(#mask3_1_349)">
<mask id="mask4_1_349" style="mask-type:luminance" maskUnits="userSpaceOnUse" x="90" y="162" width="141" height="27">
<path d="M90.2211 162.711H230.221V188.325H90.2211V162.711Z" fill="white"/>
</mask>
<g mask="url(#mask4_1_349)">
<path d="M230.368 166.922V184.133C230.368 186.457 228.482 188.343 226.158 188.343H94.4318C92.108 188.343 90.2213 186.457 90.2213 184.133V166.922C90.2213 164.598 92.108 162.712 94.4318 162.712H226.158C228.482 162.712 230.368 164.598 230.368 166.922Z" fill="#EEEEEB"/>
<path d="M129.715 175.528H100.901" stroke="#DCDBD5" stroke-width="2.13614"/>
<path d="M219.688 175.528H175.532" stroke="#DCDBD5" stroke-width="2.13614"/>
</g>
<mask id="mask5_1_349" style="mask-type:luminance" maskUnits="userSpaceOnUse" x="90" y="192" width="141" height="59">
<path d="M90.2211 192.67H230.221V250.214H90.2211V192.67Z" fill="white"/>
</mask>
<g mask="url(#mask5_1_349)">
<path d="M230.368 196.881V246.132C230.368 248.456 228.482 250.342 226.158 250.342H94.4318C92.108 250.342 90.2213 248.456 90.2213 246.132V196.881C90.2213 194.557 92.108 192.671 94.4318 192.671H226.158C228.482 192.671 230.368 194.557 230.368 196.881Z" fill="#EEEEEB"/>
<path d="M146.848 205.487H100.901" stroke="#DCDBD5" stroke-width="2.13614"/>
<path d="M219.688 216.167H100.901" stroke="#DCDBD5" stroke-width="2.13614"/>
<path d="M219.688 226.846H100.901" stroke="#DCDBD5" stroke-width="2.13614"/>
<path d="M219.688 237.526H100.901" stroke="#DCDBD5" stroke-width="2.13614"/>
</g>
</g>
<path d="M91.2632 137.665H92.3649V129.612H91.2632V137.665Z" fill="#1C1B17"/>
<path d="M93.8911 137.665H94.877V134.588C94.877 134.205 94.9051 133.911 94.9542 133.704C95.0034 133.497 95.1086 133.297 95.2735 133.104C95.477 132.862 95.7156 132.7 95.9858 132.619C96.1367 132.574 96.3297 132.549 96.5613 132.549C97.0209 132.549 97.3402 132.732 97.5156 133.097C97.6209 133.318 97.6735 133.605 97.6735 133.963V137.665H98.677V133.9C98.677 133.307 98.5963 132.851 98.4385 132.535C98.1437 131.953 97.5823 131.662 96.7472 131.662C96.3683 131.662 96.0244 131.735 95.7121 131.886C95.3999 132.037 95.1086 132.283 94.8279 132.626V131.795H93.8911V137.665Z" fill="#1C1B17"/>
<path d="M99.3642 131.795L101.529 137.665H102.582L104.792 131.795H103.712L102.076 136.574L100.512 131.795H99.3642Z" fill="#1C1B17"/>
<path d="M107.876 131.623C107.038 131.623 106.368 131.914 105.873 132.5C105.375 133.083 105.126 133.869 105.126 134.855C105.126 135.774 105.361 136.507 105.834 137.055C106.305 137.602 106.943 137.872 107.743 137.872C108.708 137.872 109.417 137.563 109.873 136.949C110.329 136.332 110.561 135.549 110.561 134.602C110.561 133.623 110.301 132.883 109.782 132.381C109.262 131.876 108.627 131.623 107.876 131.623ZM107.838 137.023C107.248 137.023 106.817 136.816 106.547 136.398C106.276 135.984 106.14 135.462 106.14 134.837C106.14 134.188 106.276 133.634 106.547 133.174C106.817 132.714 107.252 132.483 107.848 132.483C108.519 132.483 108.992 132.753 109.269 133.293C109.441 133.637 109.529 134.083 109.529 134.63C109.529 135.237 109.41 135.788 109.168 136.283C108.929 136.777 108.484 137.023 107.838 137.023Z" fill="#1C1B17"/>
<path d="M111.658 130.728H112.662V129.612H111.658V130.728ZM111.658 137.665H112.662V131.819H111.658V137.665Z" fill="#1C1B17"/>
<path d="M116.308 131.623C115.532 131.623 114.894 131.911 114.392 132.483C113.894 133.058 113.641 133.862 113.641 134.89C113.641 135.732 113.869 136.434 114.325 136.995C114.785 137.556 115.395 137.834 116.164 137.834C116.848 137.834 117.409 137.655 117.848 137.297C118.287 136.935 118.56 136.367 118.669 135.588H117.711C117.62 136.019 117.451 136.363 117.213 136.612C116.974 136.862 116.648 136.984 116.241 136.984C115.708 136.984 115.315 136.784 115.066 136.384C114.82 135.981 114.694 135.486 114.694 134.9C114.694 134.314 114.781 133.823 114.957 133.426C115.227 132.812 115.676 132.507 116.308 132.507C116.767 132.507 117.101 132.626 117.311 132.865C117.518 133.104 117.651 133.405 117.711 133.767H118.669C118.585 132.981 118.336 132.426 117.922 132.107C117.504 131.784 116.967 131.623 116.308 131.623Z" fill="#1C1B17"/>
<path d="M120.29 134.262C120.308 133.756 120.469 133.339 120.774 133.012C121.076 132.686 121.455 132.521 121.904 132.521C122.532 132.521 122.978 132.76 123.248 133.237C123.392 133.49 123.483 133.833 123.525 134.262H120.29ZM121.967 131.662C121.146 131.662 120.48 131.956 119.971 132.546C119.462 133.132 119.209 133.9 119.209 134.841C119.209 135.798 119.462 136.542 119.967 137.076C120.473 137.609 121.087 137.872 121.813 137.872C122.111 137.872 122.378 137.844 122.613 137.784C123.051 137.683 123.42 137.486 123.718 137.195C123.897 137.026 124.055 136.809 124.202 136.542C124.346 136.279 124.43 136.037 124.455 135.823H123.487C123.413 136.083 123.294 136.314 123.122 136.511C122.82 136.855 122.409 137.023 121.901 137.023C121.353 137.023 120.946 136.844 120.687 136.483C120.423 136.121 120.287 135.641 120.269 135.044H124.539C124.539 134.451 124.508 134.019 124.451 133.749C124.385 133.356 124.255 133.009 124.059 132.714C123.855 132.405 123.56 132.149 123.171 131.956C122.781 131.76 122.381 131.662 121.967 131.662Z" fill="#1C1B17"/>
<path d="M128.879 131.795H128.086V132.598H128.879V136.486C128.879 136.862 128.963 137.17 129.128 137.405C129.293 137.64 129.605 137.76 130.065 137.76C130.209 137.76 130.339 137.749 130.461 137.735C130.584 137.721 130.703 137.697 130.816 137.665V136.883C130.742 136.89 130.679 136.897 130.623 136.9C130.57 136.9 130.518 136.904 130.472 136.904C130.293 136.904 130.163 136.883 130.086 136.844C129.949 136.774 129.879 136.637 129.879 136.43V132.598H130.816V131.795H129.879V130.153H128.879V131.795Z" fill="#1C1B17"/>
<path d="M134.04 131.623C133.201 131.623 132.531 131.914 132.036 132.5C131.538 133.083 131.289 133.869 131.289 134.855C131.289 135.774 131.524 136.507 131.998 137.055C132.468 137.602 133.107 137.872 133.907 137.872C134.872 137.872 135.58 137.563 136.036 136.949C136.493 136.332 136.724 135.549 136.724 134.602C136.724 133.623 136.465 132.883 135.945 132.381C135.426 131.876 134.791 131.623 134.04 131.623ZM134.001 137.023C133.412 137.023 132.98 136.816 132.71 136.398C132.44 135.984 132.303 135.462 132.303 134.837C132.303 134.188 132.44 133.634 132.71 133.174C132.98 132.714 133.415 132.483 134.012 132.483C134.682 132.483 135.156 132.753 135.433 133.293C135.605 133.637 135.693 134.083 135.693 134.63C135.693 135.237 135.573 135.788 135.331 136.283C135.093 136.777 134.647 137.023 134.001 137.023Z" fill="#1C1B17"/>
<path d="M138.019 131.795H137.226V132.598H138.019V136.486C138.019 136.862 138.103 137.17 138.268 137.405C138.433 137.64 138.745 137.76 139.205 137.76C139.348 137.76 139.478 137.749 139.601 137.735C139.724 137.721 139.843 137.697 139.955 137.665V136.883C139.882 136.89 139.819 136.897 139.762 136.9C139.71 136.9 139.657 136.904 139.612 136.904C139.433 136.904 139.303 136.883 139.226 136.844C139.089 136.774 139.019 136.637 139.019 136.43V132.598H139.955V131.795H139.019V130.153H138.019V131.795Z" fill="#1C1B17"/>
<path d="M142.404 134.307C141.85 134.377 141.404 134.563 141.064 134.862C140.727 135.16 140.555 135.584 140.555 136.128C140.555 136.623 140.727 137.037 141.074 137.367C141.418 137.697 141.864 137.862 142.408 137.862C142.86 137.862 143.278 137.767 143.653 137.57C144.029 137.377 144.32 137.149 144.52 136.886C144.552 137.121 144.608 137.3 144.688 137.43C144.843 137.672 145.088 137.791 145.429 137.791C145.569 137.791 145.678 137.784 145.759 137.774C145.839 137.763 145.955 137.735 146.109 137.693V136.963C146.046 136.974 145.99 136.981 145.934 136.988C145.878 136.995 145.829 136.995 145.787 136.995C145.65 136.995 145.562 136.967 145.52 136.904C145.478 136.84 145.457 136.76 145.457 136.658V133.272C145.457 132.718 145.243 132.307 144.815 132.044C144.387 131.781 143.825 131.651 143.134 131.651C142.541 131.651 142.018 131.791 141.566 132.076C141.116 132.36 140.881 132.865 140.864 133.591H141.783C141.822 133.286 141.899 133.058 142.018 132.904C142.232 132.623 142.597 132.483 143.113 132.483C143.559 132.483 143.899 132.56 144.138 132.714C144.38 132.865 144.499 133.111 144.499 133.447C144.499 133.612 144.474 133.739 144.432 133.826C144.355 133.988 144.204 134.083 143.976 134.111L142.404 134.307ZM141.587 136.104C141.587 135.728 141.738 135.455 142.043 135.283C142.225 135.181 142.492 135.107 142.85 135.062L143.446 134.984C143.629 134.96 143.815 134.925 144.004 134.872C144.194 134.823 144.348 134.756 144.471 134.683V135.476C144.471 136.079 144.197 136.518 143.646 136.784C143.324 136.942 142.987 137.023 142.639 137.023C142.355 137.023 142.106 136.942 141.899 136.777C141.692 136.612 141.587 136.388 141.587 136.104Z" fill="#1C1B17"/>
<path d="M146.99 137.665H147.976V129.612H146.99V137.665Z" fill="#1C1B17"/>
<path d="M185.723 131.869C185.723 132.493 185.912 132.977 186.288 133.328C186.667 133.679 187.253 133.928 188.046 134.079V137.069C187.428 137.016 187.004 136.784 186.775 136.37C186.649 136.142 186.568 135.774 186.54 135.276H185.568C185.568 135.904 185.674 136.402 185.881 136.77C186.26 137.455 186.982 137.83 188.046 137.9V138.963H188.568V137.9C189.228 137.826 189.733 137.679 190.084 137.451C190.719 137.04 191.035 136.353 191.035 135.377C191.035 134.707 190.789 134.198 190.295 133.855C189.989 133.647 189.414 133.423 188.568 133.184V130.514C189.07 130.535 189.439 130.728 189.67 131.097C189.793 131.297 189.87 131.539 189.895 131.816H190.853C190.835 131.195 190.632 130.697 190.242 130.321C189.853 129.942 189.295 129.728 188.568 129.676V128.96H188.046V129.69C187.312 129.697 186.74 129.921 186.333 130.367C185.926 130.812 185.723 131.314 185.723 131.869ZM186.709 131.805C186.709 131.504 186.811 131.216 187.014 130.942C187.221 130.669 187.565 130.525 188.046 130.504V133.083C187.639 133.002 187.312 132.858 187.07 132.655C186.828 132.451 186.709 132.167 186.709 131.805ZM188.568 137.097V134.212C189.025 134.335 189.351 134.469 189.544 134.605C189.881 134.844 190.049 135.191 190.049 135.647C190.049 135.935 189.986 136.191 189.86 136.409C189.625 136.837 189.193 137.065 188.568 137.097Z" fill="#1C1B17"/>
<path d="M191.701 137.665H197.091V136.732H192.803C192.898 136.346 193.129 135.991 193.494 135.676C193.698 135.497 193.978 135.307 194.34 135.111L195.091 134.693C195.75 134.325 196.21 134.009 196.466 133.749C196.908 133.304 197.129 132.767 197.129 132.139C197.129 131.542 196.922 131.002 196.508 130.514C196.091 130.03 195.435 129.788 194.536 129.788C193.452 129.788 192.698 130.167 192.27 130.928C192.031 131.36 191.905 131.914 191.894 132.598H192.898C192.912 132.111 192.989 131.732 193.126 131.455C193.385 130.942 193.856 130.686 194.529 130.686C194.985 130.686 195.354 130.819 195.628 131.09C195.901 131.36 196.038 131.721 196.038 132.181C196.038 132.57 195.887 132.921 195.589 133.223C195.399 133.419 195.066 133.651 194.596 133.925L193.543 134.535C192.838 134.942 192.364 135.398 192.122 135.9C191.877 136.402 191.736 136.988 191.701 137.665Z" fill="#1C1B17"/>
<path d="M197.894 129.946V130.939H202.237C201.683 131.57 201.157 132.321 200.659 133.191C199.809 134.676 199.262 136.167 199.013 137.665H200.104C200.273 136.862 200.409 136.279 200.515 135.918C200.68 135.353 200.922 134.732 201.237 134.047C201.56 133.346 201.929 132.69 202.35 132.083C202.767 131.476 203.104 131.051 203.353 130.805V129.946H197.894Z" fill="#1C1B17"/>
<path d="M204.549 139.332C204.981 139.255 205.283 139.051 205.458 138.725C205.633 138.395 205.721 138.012 205.721 137.577V136.469H204.549V137.665H205.146C205.153 137.69 205.156 137.714 205.16 137.735C205.16 137.753 205.163 137.777 205.163 137.802C205.163 137.956 205.135 138.118 205.079 138.283C204.977 138.595 204.802 138.774 204.549 138.816V139.332Z" fill="#1C1B17"/>
<path d="M209.647 136.981C209.009 136.981 208.56 136.609 208.296 135.865C208.125 135.381 208.037 134.739 208.037 133.939C208.037 132.872 208.17 132.069 208.44 131.521C208.71 130.977 209.135 130.704 209.717 130.704C210.353 130.704 210.777 130.991 210.998 131.567C211.216 132.142 211.328 132.876 211.328 133.767C211.328 135.002 211.174 135.847 210.872 136.3C210.567 136.753 210.16 136.981 209.647 136.981ZM209.661 129.812C208.532 129.812 207.749 130.409 207.317 131.602C207.089 132.24 206.974 133.005 206.974 133.9C206.974 135.051 207.167 135.967 207.549 136.651C208.009 137.469 208.71 137.879 209.654 137.879C210.7 137.879 211.454 137.377 211.914 136.377C212.23 135.679 212.391 134.795 212.391 133.728C212.391 132.602 212.216 131.718 211.865 131.069C211.412 130.233 210.675 129.812 209.661 129.812Z" fill="#1C1B17"/>
<path d="M215.78 136.981C215.141 136.981 214.692 136.609 214.429 135.865C214.257 135.381 214.17 134.739 214.17 133.939C214.17 132.872 214.303 132.069 214.573 131.521C214.843 130.977 215.268 130.704 215.85 130.704C216.485 130.704 216.91 130.991 217.131 131.567C217.348 132.142 217.461 132.876 217.461 133.767C217.461 135.002 217.306 135.847 217.005 136.3C216.699 136.753 216.292 136.981 215.78 136.981ZM215.794 129.812C214.664 129.812 213.882 130.409 213.45 131.602C213.222 132.24 213.106 133.005 213.106 133.9C213.106 135.051 213.299 135.967 213.682 136.651C214.141 137.469 214.843 137.879 215.787 137.879C216.833 137.879 217.587 137.377 218.047 136.377C218.363 135.679 218.524 134.795 218.524 133.728C218.524 132.602 218.348 131.718 217.998 131.069C217.545 130.233 216.808 129.812 215.794 129.812Z" fill="#1C1B17"/>
<path d="M221.913 136.981C221.274 136.981 220.825 136.609 220.562 135.865C220.39 135.381 220.302 134.739 220.302 133.939C220.302 132.872 220.436 132.069 220.706 131.521C220.976 130.977 221.401 130.704 221.983 130.704C222.618 130.704 223.043 130.991 223.264 131.567C223.481 132.142 223.594 132.876 223.594 133.767C223.594 135.002 223.439 135.847 223.137 136.3C222.832 136.753 222.425 136.981 221.913 136.981ZM221.927 129.812C220.797 129.812 220.015 130.409 219.583 131.602C219.355 132.24 219.239 133.005 219.239 133.9C219.239 135.051 219.432 135.967 219.815 136.651C220.274 137.469 220.976 137.879 221.92 137.879C222.966 137.879 223.72 137.377 224.18 136.377C224.495 135.679 224.657 134.795 224.657 133.728C224.657 132.602 224.481 131.718 224.13 131.069C223.678 130.233 222.941 129.812 221.927 129.812Z" fill="#1C1B17"/>
</g>
<g opacity="0.2">
<path d="M241.228 59.4727V255.964C241.228 260.612 237.455 264.385 232.807 264.385H87.193C82.5454 264.385 78.7719 260.612 78.7719 255.964V59.4727C78.7719 54.8252 82.5454 51.0517 87.193 51.0517H232.807C237.455 51.0517 241.228 54.8252 241.228 59.4727Z" fill="#5582D2"/>
</g>
<path d="M135.439 44.0342V63.6833C135.439 66.7817 132.923 69.2974 129.825 69.2974H47.7193C44.6209 69.2974 42.1053 66.7817 42.1053 63.6833V44.0342C42.1053 40.9358 44.6209 38.4202 47.7193 38.4202H129.825C132.923 38.4202 135.439 40.9358 135.439 44.0342Z" fill="#FDFDFC"/>
<mask id="mask6_1_349" style="mask-type:luminance" maskUnits="userSpaceOnUse" x="50" y="47" width="15" height="15">
<path d="M50.9123 47.0819H64.9474V61.117H50.9123V47.0819Z" fill="white"/>
</mask>
<g mask="url(#mask6_1_349)">
<path d="M55.6179 59.578C56.341 59.8896 57.1119 60.0454 57.9302 60.0454C58.7547 60.0454 59.5288 59.8896 60.2516 59.578C60.9744 59.2664 61.6035 58.8419 62.1386 58.3036C62.6737 57.7654 63.0972 57.1349 63.4095 56.4117C63.7217 55.6886 63.8779 54.918 63.8779 54.0994C63.8779 53.2745 63.7221 52.5005 63.4098 51.7773C63.0979 51.0542 62.674 50.425 62.1389 49.89C61.6038 49.3549 60.9747 48.9314 60.2516 48.6194C59.5284 48.3075 58.754 48.1514 57.9291 48.1514C57.1109 48.1514 56.3403 48.3075 55.6172 48.6198C54.894 48.9321 54.2639 49.3556 53.7256 49.8907C53.1874 50.4258 52.7628 51.0549 52.4512 51.778C52.1396 52.5012 51.9839 53.2752 51.9839 54.0998C51.9839 54.918 52.1396 55.6889 52.4512 56.4117C52.7628 57.1345 53.1877 57.765 53.726 58.3033C54.2642 58.8415 54.8947 59.2664 55.6179 59.578ZM61.2491 52.6528L57.0737 56.8282L54.5937 54.3387L55.3835 53.5457L57.0737 55.2359L60.4498 51.8598L61.2491 52.6528Z" fill="#5582D2"/>
<path d="M55.5662 59.6997C56.3051 60.0181 57.0928 60.1774 57.929 60.1774C58.772 60.1774 59.5627 60.0181 60.3014 59.6997C61.0401 59.3813 61.6833 58.9471 62.2302 58.3972C62.777 57.8473 63.2099 57.2028 63.529 56.4639C63.8482 55.7249 64.0078 54.9373 64.0078 54.1007C64.0078 53.2575 63.8482 52.4665 63.5293 51.7273C63.2104 50.9881 62.7773 50.3452 62.2304 49.7986C61.6835 49.252 61.0406 48.8188 60.3014 48.5C59.5622 48.1811 58.771 48.0215 57.928 48.0215C57.0917 48.0215 56.3041 48.1811 55.5651 48.5002C54.8262 48.8194 54.1817 49.2522 53.6318 49.7991C53.0819 50.346 52.648 50.9891 52.3296 51.7281C52.0112 52.4671 51.8519 53.258 51.8519 54.101C51.8519 54.9373 52.0112 55.7249 52.3296 56.4636C52.648 57.2023 53.0821 57.8468 53.6323 58.397C54.1825 58.9471 54.8272 59.3813 55.5662 59.6997Z" fill="#5683D2"/>
<path d="M61.3211 52.622L57.0536 56.8896L54.5193 54.3453L55.3264 53.5347L57.0536 55.2621L60.5043 51.8113L61.3211 52.622Z" fill="#FDFDFC"/>
</g>
<path d="M72.1825 59.2064H73.5825V54.7819H76.6737C77.2281 54.7819 77.6351 54.845 77.8947 54.9714C78.3509 55.1994 78.593 55.6521 78.6246 56.3257L78.7088 58.0486C78.7263 58.4486 78.7509 58.7222 78.779 58.8626C78.807 59.0029 78.8456 59.1187 78.8912 59.2064H80.607V58.9749C80.3895 58.8801 80.2421 58.6696 80.1579 58.3433C80.1053 58.1503 80.0737 57.8591 80.0597 57.4661L80.0105 56.0801C79.986 55.4801 79.8702 55.0485 79.6667 54.7819C79.4632 54.5152 79.1614 54.2977 78.7579 54.1363C79.2176 53.8977 79.5754 53.5784 79.8281 53.1854C80.0842 52.7924 80.214 52.2871 80.214 51.6696C80.214 50.4836 79.7369 49.6731 78.786 49.231C78.2842 49.0029 77.6456 48.8871 76.8737 48.8871H72.1825V59.2064ZM73.5825 53.6135V50.0871H76.9018C77.3649 50.0871 77.7369 50.1573 78.014 50.3012C78.5333 50.5678 78.793 51.0661 78.793 51.8029C78.793 52.4871 78.607 52.9608 78.2386 53.2205C77.8667 53.4836 77.3614 53.6135 76.7228 53.6135H73.5825Z" fill="#1C1B17"/>
<path d="M82.2492 59.2065H83.7194V57.6766H82.2492V59.2065Z" fill="#1C1B17"/>
<path d="M85.9579 59.2064H93.5509V57.9784H87.3228V54.4801H92.9825V53.2836H87.3228V50.1538H93.4456V48.8871H85.9579V59.2064Z" fill="#1C1B17"/>
<path d="M94.5007 56.845C94.5358 57.5959 94.7884 58.224 95.2586 58.7327C95.7288 59.2415 96.5323 59.4941 97.6656 59.4941C98.7182 59.4941 99.5007 59.252 100.016 58.7643C100.532 58.2766 100.788 57.6976 100.788 57.0275C100.788 56.3362 100.543 55.8275 100.052 55.5047C99.7358 55.2976 99.1147 55.0871 98.1884 54.8661L97.3393 54.6626C96.9674 54.5713 96.6832 54.4696 96.4937 54.3538C96.1639 54.1573 95.9989 53.8976 95.9989 53.5678C95.9989 53.2696 96.1218 53.031 96.3744 52.8485C96.627 52.6661 96.9954 52.5748 97.4867 52.5748C98.22 52.5748 98.7358 52.7398 99.0305 53.0731C99.213 53.3047 99.3182 53.5643 99.3393 53.8485H100.536C100.543 53.3608 100.388 52.9047 100.073 52.4836C99.5639 51.8205 98.7358 51.4871 97.5884 51.4871C96.7112 51.4871 96.0095 51.7082 95.4902 52.1468C94.9709 52.5889 94.7112 53.1643 94.7112 53.8731C94.7112 54.4801 94.9884 54.9538 95.5393 55.2941C95.8481 55.4906 96.3288 55.6696 96.9814 55.8275L98.0025 56.0801C98.5498 56.2169 98.9147 56.3362 99.1007 56.438C99.3919 56.6064 99.5393 56.852 99.5393 57.1748C99.5393 57.6029 99.3568 57.9187 98.9919 58.1222C98.6305 58.3257 98.2095 58.4275 97.7323 58.4275C96.9288 58.4275 96.3639 58.224 96.0375 57.8169C95.8621 57.5924 95.7533 57.2661 95.7147 56.845H94.5007Z" fill="#1C1B17"/>
<path d="M102.122 51.6837H101.104V52.7152H102.122V57.6977C102.122 58.1784 102.227 58.5714 102.438 58.8731C102.648 59.1749 103.052 59.3258 103.641 59.3258C103.824 59.3258 103.992 59.3152 104.15 59.2977C104.308 59.2802 104.459 59.2486 104.602 59.2065V58.203C104.508 58.2135 104.427 58.224 104.357 58.224C104.287 58.2275 104.22 58.231 104.16 58.231C103.929 58.231 103.767 58.203 103.669 58.1538C103.49 58.0626 103.402 57.8872 103.402 57.6275V52.7152H104.602V51.6837H103.402V49.5819H102.122V51.6837Z" fill="#1C1B17"/>
<path d="M107.595 54.9047C106.887 54.9959 106.315 55.231 105.88 55.6134C105.445 55.9994 105.227 56.5398 105.227 57.2345C105.227 57.8731 105.448 58.3994 105.89 58.824C106.332 59.2485 106.904 59.4591 107.602 59.4591C108.181 59.4591 108.715 59.3362 109.195 59.0871C109.68 58.838 110.048 58.5468 110.308 58.2099C110.35 58.5082 110.42 58.7398 110.525 58.9047C110.722 59.2134 111.037 59.3678 111.473 59.3678C111.652 59.3678 111.792 59.3608 111.894 59.3468C111.995 59.3327 112.146 59.2977 112.343 59.2415V58.3082C112.262 58.3222 112.188 58.3327 112.118 58.3398C112.048 58.3468 111.985 58.3503 111.929 58.3503C111.757 58.3503 111.641 58.3082 111.588 58.231C111.536 58.1503 111.508 58.045 111.508 57.9152V53.5784C111.508 52.8696 111.234 52.3433 110.687 52.0064C110.136 51.6696 109.416 51.5012 108.532 51.5012C107.771 51.5012 107.101 51.6836 106.522 52.045C105.946 52.4099 105.645 53.0591 105.62 53.9889H106.802C106.848 53.5959 106.95 53.3012 107.101 53.1047C107.378 52.7468 107.845 52.5678 108.504 52.5678C109.076 52.5678 109.511 52.6661 109.82 52.8626C110.125 53.0555 110.28 53.3713 110.28 53.8029C110.28 54.0134 110.252 54.1748 110.195 54.2871C110.097 54.4941 109.901 54.6169 109.609 54.652L107.595 54.9047ZM106.55 57.2064C106.55 56.7257 106.743 56.3748 107.136 56.1573C107.364 56.024 107.711 55.9292 108.167 55.8696L108.932 55.7713C109.167 55.7433 109.402 55.6941 109.648 55.631C109.89 55.5643 110.09 55.4801 110.245 55.3819V56.3994C110.245 57.1748 109.89 57.7362 109.188 58.0766C108.771 58.2801 108.343 58.3854 107.897 58.3854C107.532 58.3854 107.216 58.2801 106.95 58.0696C106.683 57.8591 106.55 57.5713 106.55 57.2064Z" fill="#1C1B17"/>
<path d="M113.544 51.6837H112.527V52.7152H113.544V57.6977C113.544 58.1784 113.649 58.5714 113.86 58.8731C114.071 59.1749 114.474 59.3258 115.064 59.3258C115.246 59.3258 115.414 59.3152 115.572 59.2977C115.73 59.2802 115.881 59.2486 116.025 59.2065V58.203C115.93 58.2135 115.849 58.224 115.779 58.224C115.709 58.2275 115.642 58.231 115.583 58.231C115.351 58.231 115.19 58.203 115.092 58.1538C114.913 58.0626 114.825 57.8872 114.825 57.6275V52.7152H116.025V51.6837H114.825V49.5819H113.544V51.6837Z" fill="#1C1B17"/>
<path d="M117.958 54.845C117.979 54.1994 118.186 53.6661 118.576 53.245C118.965 52.8275 119.449 52.617 120.025 52.617C120.828 52.617 121.4 52.9222 121.744 53.5292C121.93 53.8591 122.049 54.2977 122.102 54.845H117.958ZM120.106 51.5152C119.053 51.5152 118.2 51.8906 117.551 52.645C116.899 53.3994 116.572 54.3819 116.572 55.5889C116.572 56.817 116.895 57.7713 117.544 58.452C118.19 59.1327 118.979 59.4731 119.909 59.4731C120.292 59.4731 120.632 59.4345 120.934 59.3608C121.495 59.231 121.969 58.9784 122.351 58.6029C122.576 58.3854 122.783 58.1082 122.969 57.7713C123.155 57.431 123.264 57.1222 123.295 56.845H122.053C121.962 57.1819 121.807 57.4731 121.586 57.7292C121.197 58.1643 120.674 58.3854 120.018 58.3854C119.316 58.3854 118.8 58.1538 118.464 57.6906C118.13 57.2275 117.951 56.6134 117.93 55.8485H123.4C123.4 55.0906 123.362 54.5363 123.288 54.1924C123.204 53.6836 123.039 53.2415 122.786 52.8626C122.527 52.4661 122.148 52.1398 121.649 51.8906C121.151 51.6415 120.635 51.5152 120.106 51.5152Z" fill="#1C1B17"/>
<path d="M266.667 252.104V271.754C266.667 274.852 264.151 277.368 261.053 277.368H181.053C177.954 277.368 175.439 274.852 175.439 271.754V252.104C175.439 249.006 177.954 246.49 181.053 246.49H261.053C264.151 246.49 266.667 249.006 266.667 252.104Z" fill="#FDFDFC"/>
<mask id="mask7_1_349" style="mask-type:luminance" maskUnits="userSpaceOnUse" x="183" y="255" width="15" height="15">
<path d="M183.5 255.152H197.535V269.187H183.5V255.152Z" fill="white"/>
</mask>
<g mask="url(#mask7_1_349)">
<path d="M188.206 267.648C188.929 267.96 189.7 268.116 190.518 268.116C191.342 268.116 192.116 267.96 192.839 267.648C193.562 267.337 194.191 266.912 194.726 266.374C195.261 265.836 195.685 265.205 195.997 264.482C196.309 263.759 196.466 262.988 196.466 262.17C196.466 261.345 196.31 260.571 195.997 259.848C195.686 259.124 195.262 258.495 194.727 257.96C194.192 257.425 193.562 257.002 192.839 256.69C192.116 256.378 191.342 256.222 190.517 256.222C189.699 256.222 188.928 256.378 188.205 256.69C187.482 257.002 186.852 257.426 186.313 257.961C185.775 258.496 185.351 259.125 185.039 259.848C184.727 260.571 184.572 261.345 184.572 262.17C184.572 262.988 184.727 263.759 185.039 264.482C185.351 265.205 185.775 265.835 186.314 266.373C186.852 266.912 187.482 267.337 188.206 267.648ZM193.837 260.723L189.661 264.898L187.181 262.409L187.971 261.616L189.661 263.306L193.037 259.93L193.837 260.723Z" fill="#5582D2"/>
<path d="M188.154 267.77C188.893 268.088 189.68 268.248 190.517 268.248C191.36 268.248 192.15 268.088 192.889 267.77C193.628 267.451 194.271 267.017 194.818 266.467C195.365 265.917 195.798 265.273 196.117 264.534C196.436 263.795 196.595 263.007 196.595 262.171C196.595 261.328 196.436 260.537 196.117 259.797C195.798 259.058 195.365 258.415 194.818 257.869C194.271 257.322 193.628 256.889 192.889 256.57C192.15 256.251 191.359 256.092 190.516 256.092C189.679 256.092 188.892 256.251 188.153 256.57C187.414 256.89 186.769 257.322 186.219 257.869C185.67 258.416 185.236 259.059 184.917 259.798C184.599 260.537 184.44 261.328 184.44 262.171C184.44 263.007 184.599 263.795 184.917 264.534C185.236 265.272 185.67 265.917 186.22 266.467C186.77 267.017 187.415 267.451 188.154 267.77Z" fill="#5683D2"/>
<path d="M193.909 260.692L189.641 264.96L187.107 262.416L187.914 261.605L189.641 263.332L193.092 259.882L193.909 260.692Z" fill="#FDFDFC"/>
</g>
<path d="M206.653 259.852C206.653 260.649 206.895 261.27 207.379 261.719C207.863 262.171 208.614 262.491 209.632 262.684V266.512C208.839 266.445 208.295 266.147 208.004 265.62C207.839 265.322 207.737 264.856 207.698 264.213H206.456C206.456 265.02 206.59 265.659 206.856 266.133C207.344 267.006 208.27 267.491 209.632 267.578V268.94H210.298V267.578C211.147 267.484 211.797 267.294 212.246 267.003C213.056 266.477 213.46 265.592 213.46 264.347C213.46 263.487 213.144 262.835 212.512 262.396C212.123 262.129 211.386 261.842 210.298 261.536V258.115C210.944 258.14 211.414 258.389 211.712 258.863C211.87 259.119 211.965 259.428 212 259.782H213.228C213.204 258.989 212.944 258.35 212.446 257.866C211.947 257.382 211.232 257.108 210.298 257.042V256.122H209.632V257.056C208.691 257.066 207.958 257.357 207.435 257.926C206.916 258.498 206.653 259.14 206.653 259.852ZM207.919 259.768C207.919 259.382 208.049 259.017 208.312 258.666C208.572 258.315 209.014 258.126 209.632 258.101V261.403C209.109 261.301 208.691 261.119 208.382 260.856C208.074 260.592 207.919 260.231 207.919 259.768ZM210.298 266.547V262.852C210.884 263.01 211.302 263.178 211.551 263.357C211.979 263.663 212.197 264.105 212.197 264.691C212.197 265.063 212.116 265.385 211.958 265.67C211.653 266.217 211.098 266.508 210.298 266.547Z" fill="#1C1B17"/>
<path d="M214.17 267.277H221.075V266.084H215.58C215.703 265.585 215.998 265.133 216.468 264.726C216.731 264.498 217.089 264.256 217.549 264.003L218.51 263.47C219.359 262.996 219.945 262.592 220.275 262.263C220.84 261.691 221.124 261.003 221.124 260.196C221.124 259.435 220.858 258.74 220.328 258.115C219.794 257.494 218.952 257.182 217.802 257.182C216.416 257.182 215.447 257.67 214.9 258.645C214.591 259.196 214.43 259.912 214.416 260.785H215.703C215.721 260.161 215.819 259.673 215.998 259.322C216.328 258.663 216.928 258.336 217.794 258.336C218.38 258.336 218.847 258.508 219.202 258.852C219.552 259.196 219.728 259.663 219.728 260.249C219.728 260.75 219.535 261.196 219.152 261.585C218.907 261.835 218.482 262.136 217.879 262.487L216.531 263.266C215.626 263.789 215.019 264.375 214.707 265.013C214.394 265.656 214.216 266.41 214.17 267.277Z" fill="#1C1B17"/>
<path d="M221.961 257.385V258.659H227.526C226.817 259.47 226.143 260.431 225.501 261.543C224.414 263.445 223.712 265.357 223.396 267.277H224.792C225.006 266.245 225.182 265.501 225.319 265.034C225.529 264.315 225.838 263.515 226.245 262.642C226.659 261.74 227.133 260.905 227.67 260.126C228.206 259.347 228.635 258.803 228.957 258.491V257.385H221.961Z" fill="#1C1B17"/>
<path d="M230.341 269.413C230.896 269.315 231.285 269.056 231.51 268.631C231.734 268.21 231.847 267.722 231.847 267.164V265.747H230.341V267.277H231.11C231.117 267.308 231.124 267.34 231.127 267.364C231.127 267.392 231.131 267.421 231.131 267.452C231.131 267.652 231.096 267.856 231.026 268.066C230.892 268.466 230.664 268.694 230.341 268.75V269.413Z" fill="#1C1B17"/>
<path d="M236.731 266.399C235.913 266.399 235.338 265.922 235.001 264.971C234.78 264.35 234.671 263.526 234.671 262.501C234.671 261.136 234.843 260.105 235.187 259.406C235.531 258.705 236.078 258.357 236.822 258.357C237.632 258.357 238.18 258.726 238.461 259.463C238.745 260.199 238.885 261.14 238.885 262.284C238.885 263.866 238.689 264.947 238.299 265.529C237.91 266.108 237.387 266.399 236.731 266.399ZM236.748 257.217C235.303 257.217 234.303 257.982 233.748 259.508C233.454 260.326 233.306 261.308 233.306 262.452C233.306 263.926 233.552 265.101 234.043 265.978C234.636 267.028 235.534 267.55 236.741 267.55C238.082 267.55 239.047 266.908 239.636 265.628C240.043 264.733 240.247 263.599 240.247 262.235C240.247 260.792 240.022 259.656 239.573 258.828C238.99 257.754 238.05 257.217 236.748 257.217Z" fill="#1C1B17"/>
<path d="M244.444 266.399C243.627 266.399 243.051 265.922 242.715 264.971C242.494 264.35 242.385 263.526 242.385 262.501C242.385 261.136 242.557 260.105 242.901 259.406C243.244 258.705 243.792 258.357 244.536 258.357C245.346 258.357 245.894 258.726 246.174 259.463C246.458 260.199 246.599 261.14 246.599 262.284C246.599 263.866 246.402 264.947 246.013 265.529C245.623 266.108 245.101 266.399 244.444 266.399ZM244.462 257.217C243.016 257.217 242.016 257.982 241.462 259.508C241.167 260.326 241.02 261.308 241.02 262.452C241.02 263.926 241.266 265.101 241.757 265.978C242.35 267.028 243.248 267.55 244.455 267.55C245.795 267.55 246.76 266.908 247.35 265.628C247.757 264.733 247.96 263.599 247.96 262.235C247.96 260.792 247.736 259.656 247.287 258.828C246.704 257.754 245.764 257.217 244.462 257.217Z" fill="#1C1B17"/>
<path d="M252.158 266.399C251.341 266.399 250.765 265.922 250.428 264.971C250.207 264.35 250.099 263.526 250.099 262.501C250.099 261.136 250.271 260.105 250.614 259.406C250.958 258.705 251.506 258.357 252.249 258.357C253.06 258.357 253.607 258.726 253.888 259.463C254.172 260.199 254.313 261.14 254.313 262.284C254.313 263.866 254.116 264.947 253.727 265.529C253.337 266.108 252.814 266.399 252.158 266.399ZM252.176 257.217C250.73 257.217 249.73 257.982 249.176 259.508C248.881 260.326 248.734 261.308 248.734 262.452C248.734 263.926 248.979 265.101 249.471 265.978C250.064 267.028 250.962 267.55 252.169 267.55C253.509 267.55 254.474 266.908 255.064 265.628C255.471 264.733 255.674 263.599 255.674 262.235C255.674 260.792 255.449 259.656 255 258.828C254.418 257.754 253.478 257.217 252.176 257.217Z" fill="#1C1B17"/>
<path d="M126.053 173.42V193.069C126.053 196.168 123.537 198.683 120.439 198.683H40.7895C37.6911 198.683 35.1754 196.168 35.1754 193.069V173.42C35.1754 170.322 37.6911 167.806 40.7895 167.806H120.439C123.537 167.806 126.053 170.322 126.053 173.42Z" fill="#FDFDFC"/>
<mask id="mask8_1_349" style="mask-type:luminance" maskUnits="userSpaceOnUse" x="43" y="176" width="15" height="15">
<path d="M43.6386 176.563H57.4845V190.409H43.6386V176.563Z" fill="white"/>
</mask>
<g mask="url(#mask8_1_349)">
<g opacity="0.909852">
<path d="M48.2808 188.89C48.9942 189.198 49.7547 189.351 50.5619 189.351C51.3754 189.351 52.139 189.198 52.852 188.89C53.5651 188.583 54.1857 188.164 54.7136 187.633C55.2415 187.102 55.6593 186.48 55.9674 185.767C56.2754 185.053 56.4295 184.293 56.4295 183.486C56.4295 182.672 56.2758 181.908 55.9677 181.195C55.66 180.481 55.2418 179.861 54.714 179.333C54.1861 178.805 53.5655 178.387 52.852 178.079C52.1386 177.772 51.3747 177.618 50.5609 177.618C49.7537 177.618 48.9935 177.772 48.2801 178.08C47.5667 178.388 46.945 178.806 46.414 179.334C45.8831 179.861 45.4642 180.482 45.1568 181.195C44.8495 181.909 44.6958 182.672 44.6958 183.486C44.6958 184.293 44.8495 185.054 45.1568 185.767C45.4642 186.48 45.8834 187.102 46.4144 187.633C46.9454 188.164 47.5674 188.583 48.2808 188.89ZM53.8361 182.058L49.717 186.178L47.2704 183.722L48.0496 182.939L49.717 184.607L53.0476 181.276L53.8361 182.058Z" fill="#5582D2"/>
<path d="M48.2298 189.01C48.9588 189.324 49.7358 189.482 50.5608 189.482C51.3924 189.482 52.1725 189.324 52.9012 189.01C53.63 188.696 54.2645 188.268 54.8039 187.725C55.3434 187.183 55.7705 186.547 56.0853 185.818C56.4002 185.089 56.5576 184.312 56.5576 183.487C56.5576 182.655 56.4002 181.875 56.0856 181.145C55.771 180.416 55.3437 179.782 54.8042 179.243C54.2647 178.703 53.6305 178.276 52.9012 177.962C52.172 177.647 51.3914 177.49 50.5598 177.49C49.7348 177.49 48.9578 177.647 48.2288 177.962C47.4998 178.277 46.864 178.704 46.3215 179.243C45.779 179.783 45.3509 180.417 45.0368 181.146C44.7227 181.875 44.5656 182.656 44.5656 183.487C44.5656 184.312 44.7227 185.089 45.0368 185.818C45.3509 186.547 45.7792 187.182 46.322 187.725C46.8648 188.268 47.5008 188.696 48.2298 189.01Z" fill="#5683D2"/>
<path d="M53.9072 182.028L49.6971 186.238L47.1971 183.728L47.9933 182.928L49.6971 184.633L53.1013 181.228L53.9072 182.028Z" fill="#FDFDFC"/>
</g>
</g>
<path d="M69.8386 181.47V188.592H71.1859V178.575H70.1895C70.0105 179.354 69.7438 179.845 69.3824 180.056C69.021 180.263 68.3859 180.41 67.4702 180.501V181.47H69.8386Z" fill="#1C1B17"/>
<path d="M77.3818 188.592H78.6485V184.603C78.6485 183.635 78.8415 182.964 79.2344 182.592C79.6239 182.224 80.059 182.038 80.5362 182.038C81.0625 182.038 81.4204 182.213 81.6099 182.564C81.7327 182.799 81.7923 183.171 81.7923 183.684V188.592H83.0801V184.217C83.0801 183.438 83.259 182.884 83.6169 182.55C83.9748 182.22 84.4029 182.052 84.8976 182.052C85.259 182.052 85.5643 182.147 85.8169 182.333C86.066 182.522 86.1923 182.866 86.1923 183.368V188.592H87.5046V183.585C87.5046 182.919 87.4064 182.389 87.2099 181.996C86.845 181.266 86.1572 180.901 85.1432 180.901C84.673 180.901 84.245 180.999 83.866 181.192C83.4871 181.385 83.1572 181.684 82.8765 182.087C82.7081 181.761 82.5186 181.512 82.3151 181.343C81.9502 181.049 81.466 180.901 80.866 180.901C80.3362 180.901 79.866 181.045 79.4485 181.329C79.2029 181.498 78.9327 181.768 78.6344 182.136V181.07H77.3818V188.592Z" fill="#1C1B17"/>
<path d="M92.0881 180.852C91.0144 180.852 90.1583 181.227 89.5197 181.975C88.8846 182.722 88.5653 183.729 88.5653 184.992C88.5653 186.171 88.8671 187.112 89.4741 187.81C90.0776 188.508 90.8916 188.859 91.9197 188.859C93.1513 188.859 94.0636 188.463 94.6495 187.673C95.2355 186.884 95.5267 185.88 95.5267 184.67C95.5267 183.417 95.1934 182.466 94.5302 181.82C93.8636 181.175 93.0495 180.852 92.0881 180.852ZM92.039 187.771C91.2846 187.771 90.7337 187.505 90.3864 186.971C90.039 186.438 89.8636 185.771 89.8636 184.971C89.8636 184.14 90.039 183.427 90.3864 182.838C90.7337 182.249 91.2881 181.954 92.053 181.954C92.9127 181.954 93.5197 182.301 93.8741 182.992C94.0951 183.431 94.2074 184.003 94.2074 184.705C94.2074 185.48 94.053 186.185 93.7443 186.82C93.4355 187.452 92.8671 187.771 92.039 187.771Z" fill="#1C1B17"/>
<path d="M96.7914 188.592H98.058V184.652C98.058 184.161 98.0896 183.782 98.1528 183.519C98.2159 183.252 98.3528 182.996 98.5633 182.747C98.8229 182.438 99.1282 182.235 99.4756 182.129C99.6685 182.07 99.9142 182.038 100.212 182.038C100.802 182.038 101.212 182.273 101.437 182.74C101.57 183.02 101.64 183.392 101.64 183.852V188.592H102.925V183.768C102.925 183.006 102.823 182.424 102.616 182.017C102.24 181.273 101.521 180.901 100.451 180.901C99.9633 180.901 99.5212 180.996 99.1247 181.189C98.7247 181.382 98.3492 181.698 97.9949 182.136V181.07H96.7914V188.592Z" fill="#1C1B17"/>
<path d="M104.758 181.07H103.74V182.101H104.758V187.084C104.758 187.564 104.863 187.957 105.074 188.259C105.284 188.561 105.688 188.712 106.277 188.712C106.46 188.712 106.628 188.701 106.786 188.684C106.944 188.666 107.095 188.635 107.239 188.592V187.589C107.144 187.599 107.063 187.61 106.993 187.61C106.923 187.614 106.856 187.617 106.796 187.617C106.565 187.617 106.403 187.589 106.305 187.54C106.126 187.449 106.039 187.273 106.039 187.014V182.101H107.239V181.07H106.039V178.968H104.758V181.07Z" fill="#1C1B17"/>
<path d="M108.214 188.592H109.48V184.603C109.48 183.599 109.691 182.919 110.119 182.557C110.543 182.199 111.021 182.017 111.543 182.017C112.175 182.017 112.607 182.224 112.838 182.635C112.979 182.894 113.049 183.298 113.049 183.852V188.592H114.347V183.768C114.347 183.028 114.242 182.449 114.031 182.031C113.642 181.27 112.901 180.887 111.81 180.887C111.203 180.887 110.694 181.02 110.287 181.287C110.049 181.442 109.779 181.708 109.48 182.087V178.238H108.214V188.592Z" fill="#1C1B17"/>
<g opacity="0.709852">
<path d="M291.181 145.789V165.438C291.181 168.536 288.665 171.052 285.567 171.052H204.433C201.335 171.052 198.819 168.536 198.819 165.438V145.789C198.819 142.69 201.335 140.174 204.433 140.174H285.567C288.665 140.174 291.181 142.69 291.181 145.789Z" fill="#FDFDFC"/>
</g>
<g opacity="0.709852">
<path d="M232.828 150.361C231.313 150.361 230.127 150.891 229.264 151.95C228.471 152.926 228.071 154.171 228.071 155.698C228.071 157.701 228.6 159.185 229.66 160.147C230.467 160.873 231.464 161.235 232.646 161.235C234.021 161.235 235.113 160.792 235.923 159.908C236.6 159.171 236.997 158.263 237.12 157.175H235.755C235.618 157.852 235.407 158.403 235.127 158.817C234.6 159.61 233.828 160.006 232.818 160.006C231.716 160.006 230.892 159.631 230.337 158.877C229.783 158.126 229.506 157.143 229.506 155.936C229.506 154.459 229.811 153.364 230.425 152.649C231.039 151.933 231.846 151.575 232.842 151.575C233.66 151.575 234.299 151.771 234.751 152.161C235.204 152.547 235.506 153.077 235.657 153.74H237.021C236.941 152.863 236.544 152.084 235.832 151.392C235.12 150.705 234.12 150.361 232.828 150.361Z" fill="#1C1B17"/>
<path d="M238.951 160.961H240.365V150.642H238.951V160.961Z" fill="#1C1B17"/>
<path d="M241.846 157.603H245.372V156.305H241.846V157.603Z" fill="#1C1B17"/>
<path d="M249.496 153.838V160.961H250.844V150.943H249.847C249.668 151.722 249.401 152.213 249.04 152.424C248.679 152.631 248.044 152.778 247.128 152.87V153.838H249.496Z" fill="#1C1B17"/>
<path d="M258.446 160.961V158.501H259.927V157.399H258.446V150.873H257.376L252.769 157.266V158.501H257.18V160.961H258.446ZM253.934 157.399L257.159 152.831V157.399H253.934Z" fill="#1C1B17"/>
<path d="M262.311 155.603C261.739 155.831 261.308 156.161 261.016 156.596C260.725 157.027 260.581 157.543 260.581 158.136C260.581 159.147 260.922 159.919 261.595 160.452C262.273 160.982 263.101 161.249 264.08 161.249C265.167 161.249 266.006 160.94 266.602 160.326C267.195 159.708 267.494 158.957 267.494 158.073C267.494 157.326 267.269 156.715 266.823 156.249C266.585 155.999 266.255 155.778 265.837 155.585C266.209 155.375 266.487 155.161 266.666 154.94C266.985 154.554 267.143 154.045 267.143 153.417C267.143 152.736 266.869 152.143 266.322 151.635C265.774 151.129 265.02 150.873 264.055 150.873C263.058 150.873 262.29 151.143 261.746 151.68C261.206 152.22 260.932 152.863 260.932 153.613C260.932 154.213 261.118 154.701 261.487 155.073C261.683 155.277 261.96 155.452 262.311 155.603ZM264.108 160.098C263.378 160.098 262.837 159.905 262.49 159.526C262.139 159.143 261.967 158.691 261.967 158.164C261.967 157.557 262.157 157.08 262.539 156.736C262.918 156.392 263.413 156.22 264.016 156.22C264.641 156.22 265.15 156.389 265.55 156.726C265.946 157.063 266.146 157.557 266.146 158.206C266.146 158.835 265.953 159.308 265.567 159.624C265.178 159.94 264.694 160.098 264.108 160.098ZM264.027 155.115C263.55 155.115 263.136 154.982 262.785 154.715C262.437 154.449 262.262 154.077 262.262 153.603C262.262 153.182 262.395 152.813 262.666 152.498C262.939 152.182 263.378 152.027 263.985 152.027C264.599 152.027 265.051 152.182 265.353 152.498C265.651 152.813 265.802 153.157 265.802 153.533C265.802 153.964 265.644 154.336 265.332 154.649C265.016 154.961 264.585 155.115 264.027 155.115Z" fill="#1C1B17"/>
<path d="M270.025 155.603C269.453 155.831 269.021 156.161 268.73 156.596C268.439 157.027 268.295 157.543 268.295 158.136C268.295 159.147 268.636 159.919 269.309 160.452C269.986 160.982 270.814 161.249 271.793 161.249C272.881 161.249 273.72 160.94 274.316 160.326C274.909 159.708 275.207 158.957 275.207 158.073C275.207 157.326 274.983 156.715 274.537 156.249C274.299 155.999 273.969 155.778 273.551 155.585C273.923 155.375 274.2 155.161 274.379 154.94C274.699 154.554 274.857 154.045 274.857 153.417C274.857 152.736 274.583 152.143 274.036 151.635C273.488 151.129 272.734 150.873 271.769 150.873C270.772 150.873 270.004 151.143 269.46 151.68C268.92 152.22 268.646 152.863 268.646 153.613C268.646 154.213 268.832 154.701 269.2 155.073C269.397 155.277 269.674 155.452 270.025 155.603ZM271.821 160.098C271.092 160.098 270.551 159.905 270.204 159.526C269.853 159.143 269.681 158.691 269.681 158.164C269.681 157.557 269.871 157.08 270.253 156.736C270.632 156.392 271.127 156.22 271.73 156.22C272.355 156.22 272.864 156.389 273.264 156.726C273.66 157.063 273.86 157.557 273.86 158.206C273.86 158.835 273.667 159.308 273.281 159.624C272.892 159.94 272.407 160.098 271.821 160.098ZM271.741 155.115C271.264 155.115 270.85 154.982 270.499 154.715C270.151 154.449 269.976 154.077 269.976 153.603C269.976 153.182 270.109 152.813 270.379 152.498C270.653 152.182 271.092 152.027 271.699 152.027C272.313 152.027 272.765 152.182 273.067 152.498C273.365 152.813 273.516 153.157 273.516 153.533C273.516 153.964 273.358 154.336 273.046 154.649C272.73 154.961 272.299 155.115 271.741 155.115Z" fill="#1C1B17"/>
<path d="M281.588 160.961V158.501H283.068V157.399H281.588V150.873H280.518L275.911 157.266V158.501H280.321V160.961H281.588ZM277.075 157.399L280.3 152.831V157.399H277.075Z" fill="#1C1B17"/>
</g>
</g>
</g>
<defs>
<clipPath id="clip0_1_349">
<rect y="0.718384" width="320" height="320" rx="8" fill="white"/>
</clipPath>
</defs>
</svg>
