<svg width="25" height="25" viewBox="0 0 25 25" fill="none" xmlns="http://www.w3.org/2000/svg">
<g clip-path="url(#clip0_1_91)">
<g clip-path="url(#clip1_1_91)">
<g clip-path="url(#clip2_1_91)">
<mask id="mask0_1_91" style="mask-type:luminance" maskUnits="userSpaceOnUse" x="0" y="0" width="25" height="25">
<path d="M24.92 0.718384H0.919998V24.7184H24.92V0.718384Z" fill="white"/>
</mask>
<g mask="url(#mask0_1_91)">
<path d="M12.92 24.7184C19.5474 24.7184 24.92 19.3458 24.92 12.7184C24.92 6.09096 19.5474 0.718384 12.92 0.718384C6.29258 0.718384 0.919998 6.09096 0.919998 12.7184C0.919998 19.3458 6.29258 24.7184 12.92 24.7184Z" fill="#FF492C"/>
<path d="M18.1136 9.91039H16.064C16.1192 9.58879 16.3184 9.40879 16.7216 9.20479L17.0984 9.01279C17.7728 8.66719 18.1328 8.27599 18.1328 7.63759C18.1328 7.23679 17.9768 6.91999 17.6672 6.69199C17.3576 6.46399 16.9928 6.35119 16.5656 6.35119C16.2351 6.3473 15.9107 6.43988 15.632 6.61759C15.3512 6.79039 15.1424 7.01359 15.0128 7.29199L15.6056 7.88719C15.836 7.42159 16.1696 7.19359 16.6088 7.19359C16.9808 7.19359 17.2088 7.38559 17.2088 7.65199C17.2088 7.87519 17.0984 8.05999 16.6712 8.27599L16.4288 8.39359C15.9032 8.65999 15.5384 8.96479 15.3272 9.31039C15.116 9.65599 15.0128 10.0904 15.0128 10.616V10.76H18.1136V9.91039ZM17.84 11.7392H14.4464L12.7496 14.6768H16.1432L17.84 17.6168L19.5368 14.6768L17.84 11.7392Z" fill="white"/>
<path d="M13.0424 16.6376C10.8824 16.6376 9.12322 14.8784 9.12322 12.7184C9.12322 10.5584 10.8824 8.79917 13.0424 8.79917L14.384 5.99357C13.9422 5.90572 13.4929 5.86151 13.0424 5.86157C9.25523 5.86157 6.18562 8.93117 6.18562 12.7184C6.18562 16.5056 9.25523 19.5752 13.0424 19.5752C14.4938 19.5779 15.908 19.1171 17.0792 18.26L15.596 15.6872C14.8864 16.3002 13.9801 16.6375 13.0424 16.6376Z" fill="white"/>
</g>
</g>
</g>
</g>
<defs>
<clipPath id="clip0_1_91">
<rect width="24" height="24" fill="white" transform="translate(0.919998 0.718384)"/>
</clipPath>
<clipPath id="clip1_1_91">
<rect width="24" height="24" fill="white" transform="translate(0.919998 0.718384)"/>
</clipPath>
<clipPath id="clip2_1_91">
<rect width="24" height="24" fill="white" transform="translate(0.919998 0.718384)"/>
</clipPath>
</defs>
</svg>
